<?xml version="1.0" standalone="no"?><!DOCTYPE svg PUBLIC "-//W3C//DTD SVG 1.1//EN" "http://www.w3.org/Graphics/SVG/1.1/DTD/svg11.dtd"><svg t="1613550833352" class="icon" viewBox="0 0 1181 1024" version="1.1" xmlns="http://www.w3.org/2000/svg" p-id="20255" xmlns:xlink="http://www.w3.org/1999/xlink" width="18.453125" height="16"><defs><style type="text/css">@font-face { font-weight: 400; font-style: normal; font-family: Circular-Loom; src: url("https://cdn.loom.com/assets/fonts/circular/CircularXXWeb-Book-cd7d2bcec649b1243839a15d5eb8f0a3.woff2") format("woff2"); }
@font-face { font-weight: 500; font-style: normal; font-family: Circular-Loom; src: url("https://cdn.loom.com/assets/fonts/circular/CircularXXWeb-Medium-d74eac43c78bd5852478998ce63dceb3.woff2") format("woff2"); }
@font-face { font-weight: 700; font-style: normal; font-family: Circular-Loom; src: url("https://cdn.loom.com/assets/fonts/circular/CircularXXWeb-Bold-83b8ceaf77f49c7cffa44107561909e4.woff2") format("woff2"); }
@font-face { font-weight: 900; font-style: normal; font-family: Circular-Loom; src: url("https://cdn.loom.com/assets/fonts/circular/CircularXXWeb-Black-bf067ecb8aa777ceb6df7d72226febca.woff2") format("woff2"); }
</style></defs><path d="M277.549623 787.330931h789.211929a37.793949 37.793949 0 0 0 35.274952-35.132952s54.118927-301.113591 78.817893-508.46831c7.09799-57.419922-19.979973-85.524884-72.926901-85.524884H245.823666L231.628686 35.167952A36.69395 36.69395 0 0 0 198.73173 0H39.958946a39.816946 39.816946 0 1 0 0 79.669892h123.497832l79.989892 672.670087a35.913951 35.913951 0 0 0 34.102953 34.990952z m826.863878-550.663252c-21.291971 166.366774-56.459923 388.981472-70.549904 471.987359H311.689577l-56.459923-471.987359zM316.373571 867.000823a78.498893 78.498893 0 1 0 78.817893 78.498894 78.639893 78.639893 0 0 0-78.817893-78.498894z m711.564034 0a78.498893 78.498893 0 1 0 78.818893 78.498894 78.639893 78.639893 0 0 0-78.818893-78.498894z" fill="#2c2c2c" p-id="20256"></path></svg>